<svg xmlns="http://www.w3.org/2000/svg" xmlns:xlink="http://www.w3.org/1999/xlink" height="503" viewBox="0 0 1440 503" width="1440"><defs><path id="a" d="m0 0h1440v502h-1440z"/><mask id="b" fill="#fff"><use fill="#fff" fill-rule="evenodd" xlink:href="#a"/></mask></defs><g fill="none" fill-rule="evenodd" transform="translate(0 .627995)"><use fill="#251c32" xlink:href="#a"/><g mask="url(#b)" opacity=".162737" stroke-linecap="round"><g stroke="#ff5a6f" stroke-width="17.9785" transform="matrix(-1 0 0 1 537 203)"><path d="m470.138476 207.091241-34.746283 32.010949"/><path d="m432.555762 200.558394 214.150558-197.29197064 65.947026 63.36861314-497.793681 459.2591245-112.748141-103.872263 345.335502-318.149635"/><path d="m318.389405 139.80292 44.673792-41.810219"/><path d="m545.303903 179.653285-387.88197 357.346715-157.421933-145.029197 177.276952-163.974453"/><path d="m288.606877 167.240876 7.091078-7.186131"/><path d="m312.007435 103.872263 15.600372-14.372263"/><path d="m154.585502 165.934307 30.491636-27.437957"/><path d="m282.224907 89.5-240.3875464 221.463504 112.7481414 103.872262 300.66171-276.339416"/><path d="m499.921004 179.653285-7.091078 7.186131"/><path d="m530.412639 69.248175-53.183085 48.343066"/><path d="m253.860595 239.10219 118.421004-107.791971"/><path d="m411.282528 219.50365-234.005576 216.237226 90.056691 82.967153 495.666357-456.6459852-68.074349-62.0620438-172.313197 158.748175"/><path d="m199.968401 207.091241 90.056692-82.967153"/><path d="m492.829926 62.062044-22.69145 20.905109"/><path d="m131.894052 186.839416-131.894052 122.164234 67.3652416 62.062043 199.9684014-184.226277"/></g></g></g></svg>